<svg id="reg" enable-background="new 0 0 24 24" height="512" viewBox="0 0 24 24" width="512" xmlns="http://www.w3.org/2000/svg"><path id="XMLID_30_" d="m16.047 2.022c-.119-.056-.214 0-.214.136v16.219l7.034 3.549c.348.176.633 0 .633-.4v-15.612c0-.08-.04-.152-.111-.184z" fill="#2ffc8d"/><path id="XMLID_29_" d="m8.167 14.507 7.54-12.382c.071-.112.222-.16.34-.096l7.287 3.677c.087.048.127.16.071.248l-7.572 12.422z" fill="#03e370"/><path id="XMLID_28_" d="m1.347 2.349c-.467-.24-.625-.064-.349.392l7.168 11.766 7.667 3.877-7.619-12.51c-.032-.056-.079-.096-.134-.128z" fill="#10c767"/><path id="XMLID_27_" d="m8.167 21.549c0 .378-.285.556-.633.386l-6.606-3.227c-.238-.116-.428-.417-.428-.672v-14.971c0-.255.19-.371.427-.255l7.145 3.49c.055.031.095.085.095.147z" fill="#00ab6c"/><path d="m.464 18.897 7.5 3.09c.497.204 1.04-.164 1.036-.697l-.034-5.647c19.12 9.52 12.525 6.236 13.952 6.947.498.243 1.082-.117 1.082-.673v-15.846c0-.91-1.902-1.474-7.616-4.413-.191-.129-.42-.182-.631-.151-.643-.001-.346-.16-4.907 7.269-.409-.672-.846-1.391-1.317-2.165-.767-1.263-.767-1.263-1.026-1.378-.01-.005-.02-.004-.03-.009-.005-.001-.008-.005-.013-.007l-7.407-3.265c-.495-.22-1.053.145-1.053.686v15.565c0 .304.184.578.464.694zm16.393-.971c.884-1.367 2.374-4.203 5.643-9.387v12.171zm-.831-14.77c3.58 1.843 5.318 2.659 6.174 3.089l-6.452 10.533c-.641-1.046-1.83-2.966-4.025-6.563 2.793-4.537 3.878-6.376 4.303-7.059zm-2.305 13.196-4.751-2.388-.014-.007-.033-5.463c1.738 2.844 4.719 7.728 4.798 7.858zm-12.221-12.563 5.91 2.605.083 13.777-5.993-2.469z"/></svg>